<?xml version="1.0" encoding="UTF-8"?>
<svg id="Camada_1" xmlns="http://www.w3.org/2000/svg" viewBox="0 0 221.71 155.41">
  <defs>
    <style>
      .cls-1 {
        fill: #1d1d1b;
      }

      .cls-1, .cls-2 {
        stroke: #1d1d1b;
        stroke-miterlimit: 10;
      }

      .cls-2 {
        fill: none;
      }
    </style>
  </defs>
  <line class="cls-2" x1="199.29" y1="50.71" x2="199.29" y2="50.2"/>
  <g>
    <line class="cls-2" x1="159.29" y1="19.49" x2="158.07" y2="20.71"/>
    <polygon class="cls-1" points="152.22 40.71 150.15 42.78 149.29 41.93 149.29 40.71 152.22 40.71"/>
    <line class="cls-2" x1="150.15" y1="42.78" x2="149.29" y2="43.64"/>
    <line class="cls-2" x1="157.22" y1="49.85" x2="156.36" y2="50.71"/>
    <line class="cls-2" x1="160.5" y1="60.71" x2="159.29" y2="61.92"/>
  </g>
  <g>
    <line class="cls-2" x1="180.5" y1="30.71" x2="179.29" y2="29.5"/>
    <polyline class="cls-2" points="200.5 50.71 199.64 49.85 199.29 49.5"/>
    <line class="cls-2" x1="190.5" y1="40.71" x2="189.29" y2="39.5"/>
    <line class="cls-2" x1="170.51" y1="20.71" x2="169.29" y2="19.49"/>
    <polygon class="cls-1" points="199.29 60.71 199.29 63.64 196.36 60.71 199.29 60.71"/>
    <polygon class="cls-1" points="189.29 50.71 189.29 53.64 186.36 50.71 189.29 50.71"/>
    <line class="cls-2" x1="179.29" y1="43.64" x2="178.43" y2="42.78"/>
  </g>
  <g>
    <polygon class="cls-1" points="152.22 30.71 149.29 30.71 149.29 29.49 150.15 28.64 152.22 30.71"/>
    <polygon class="cls-1" points="159.29 20.71 159.29 23.64 157.22 21.57 158.07 20.71 159.29 20.71"/>
    <polygon class="cls-1" points="162.22 30.71 159.29 33.64 159.29 30.71 162.22 30.71"/>
    <path class="cls-1" d="M164.29,14.49l-5,5v4.15l-2.07-2.07-7.07,7.07,2.07,2.07h-2.93V13.64l-2.93-2.93h2.93V1.21l-6.21,6.22-3.29,3.28h-.01c-.05.12-.12.2-.24.25l-.25.25v28.28l3.78-3.78,5,5h4.15l7.07-7.07v-2.93h2.93l7.07-7.07v-4.15l-5-5Z"/>
    <polygon class="cls-1" points="148.07 40.71 139.29 40.71 139.29 39.49 143.07 35.71 148.07 40.71"/>
    <polygon class="cls-1" points="149.29 10.71 149.29 13.64 146.36 10.71 149.29 10.71"/>
    <polygon class="cls-1" points="171.36 21.57 169.29 23.64 169.29 20.71 170.51 20.71 171.36 21.57"/>
    <polygon class="cls-1" points="149.29 41.93 149.29 43.64 143.08 49.85 139.29 46.07 139.29 19.49 148.07 19.49 149.29 41.93"/>
    <polygon class="cls-1" points="143.08 49.85 142.22 50.71 139.29 50.71 139.29 46.07 143.08 49.85"/>
    <polygon class="cls-1" points="142.22 50.71 139.29 53.64 139.29 50.71 142.22 50.71"/>
    <polygon class="cls-1" points="179.29 29.5 179.29 30.71 176.36 30.71 178.43 28.64 179.29 29.5"/>
    <polygon class="cls-1" points="169.29 37.78 169.29 40.71 166.36 40.71 169.29 37.78"/>
    <polygon class="cls-1" points="159.29 47.78 159.29 50.71 158.08 50.71 157.22 49.85 159.29 47.78"/>
    <polygon class="cls-1" points="153.94 60.71 149.29 60.71 149.29 57.78 150.15 56.92 153.94 60.71"/>
    <polygon class="cls-1" points="149.29 57.78 149.29 60.71 146.36 60.71 149.29 57.78"/>
    <polygon class="cls-1" points="149.29 70.21 149.29 70.71 139.29 70.71 139.29 67.78 143.08 64 149.29 70.21"/>
    <line class="cls-2" x1="149.79" y1="70.71" x2="149.29" y2="70.71"/>
    <polygon class="cls-1" points="189.29 46.06 189.29 50.71 186.36 50.71 185.5 49.85 189.29 46.06"/>
    <polygon class="cls-1" points="220.5 70.71 206.36 70.71 199.29 63.64 199.29 60.71 196.36 60.71 189.29 53.64 189.29 46.06 185.5 49.85 179.29 43.64 179.29 41.92 180.5 40.71 179.29 40.71 179.29 41.92 160.5 60.71 159.29 60.71 159.29 61.92 157.22 63.99 150.5 70.71 149.79 70.71 143.08 64 146.36 60.71 153.94 60.71 150.15 56.92 156.36 50.71 159.29 50.71 159.29 47.78 166.36 40.71 169.29 40.71 169.29 37.78 176.36 30.71 180.5 30.71 189.29 39.5 189.29 40.71 190.5 40.71 199.29 49.5 199.29 50.2 198.78 50.71 200.5 50.71 220.5 70.71"/>
    <polygon class="cls-1" points="139.29 67.78 139.29 70.71 136.36 70.71 139.29 67.78"/>
  </g>
</svg>